<?xml version="1.0" encoding="UTF-8" standalone="no"?>
<!-- Created with Inkscape (http://www.inkscape.org/) -->
<svg
   xmlns:dc="http://purl.org/dc/elements/1.1/"
   xmlns:cc="http://creativecommons.org/ns#"
   xmlns:rdf="http://www.w3.org/1999/02/22-rdf-syntax-ns#"
   xmlns:svg="http://www.w3.org/2000/svg"
   xmlns="http://www.w3.org/2000/svg"
   xmlns:sodipodi="http://sodipodi.sourceforge.net/DTD/sodipodi-0.dtd"
   xmlns:inkscape="http://www.inkscape.org/namespaces/inkscape"
   width="32px"
   height="32px"
   id="svg2432"
   sodipodi:version="0.32"
   inkscape:version="0.46"
   inkscape:export-filename="/home/jon/projects/pyriffplayer/res/play.png"
   inkscape:export-xdpi="90"
   inkscape:export-ydpi="90"
   sodipodi:docname="sync.svg"
   inkscape:output_extension="org.inkscape.output.svg.inkscape">
  <defs
     id="defs2434">
    <filter
       inkscape:collect="always"
       id="filter3316">
      <feGaussianBlur
         inkscape:collect="always"
         stdDeviation="0.58671616"
         id="feGaussianBlur3318" />
    </filter>
    <inkscape:perspective
       sodipodi:type="inkscape:persp3d"
       inkscape:vp_x="0 : 16 : 1"
       inkscape:vp_y="0 : 1000 : 0"
       inkscape:vp_z="32 : 16 : 1"
       inkscape:persp3d-origin="16 : 10.666667 : 1"
       id="perspective2440" />
  </defs>
  <sodipodi:namedview
     id="base"
     pagecolor="#000000"
     bordercolor="#666666"
     borderopacity="1.0"
     inkscape:pageopacity="1"
     inkscape:pageshadow="2"
     inkscape:zoom="11.197802"
     inkscape:cx="19.190681"
     inkscape:cy="12.472635"
     inkscape:current-layer="layer1"
     showgrid="true"
     inkscape:grid-bbox="true"
     inkscape:document-units="px"
     inkscape:window-width="1364"
     inkscape:window-height="719"
     inkscape:window-x="155"
     inkscape:window-y="206" />
  <metadata
     id="metadata2437">
    <rdf:RDF>
      <cc:Work
         rdf:about="">
        <dc:format>image/svg+xml</dc:format>
        <dc:type
           rdf:resource="http://purl.org/dc/dcmitype/StillImage" />
      </cc:Work>
    </rdf:RDF>
  </metadata>
  <g
     id="layer1"
     inkscape:label="Layer 1"
     inkscape:groupmode="layer">
    <path
       sodipodi:type="arc"
       style="fill:#a9bbc1;fill-opacity:1;fill-rule:evenodd;stroke:#000000;stroke-width:1;stroke-miterlimit:4;stroke-dasharray:none;stroke-dashoffset:0;stroke-opacity:1;filter:url(#filter3316)"
       id="path3343"
       sodipodi:cx="157.14285"
       sodipodi:cy="266.64789"
       sodipodi:rx="54.285713"
       sodipodi:ry="51.42857"
       d="M 211.42857,266.64789 A 54.285713,51.42857 0 1 1 102.85714,266.64789 A 54.285713,51.42857 0 1 1 211.42857,266.64789 z"
       transform="matrix(0.2696719,0,0,0.2846532,-26.377006,-59.902171)" />
    <path
       style="fill:#2c2c2c;fill-opacity:1;stroke:#000000;stroke-width:0.15024896;stroke-miterlimit:4;stroke-dasharray:none;stroke-opacity:1"
       d="M 16,6.4375002 C 12.029961,6.4375002 8.8125,10.00933 8.8125,14.40625 C 8.8125,14.480127 8.810691,14.551607 8.8125,14.625 L 6.8125,14.625 L 6.8125,25.5625 L 25.1875,25.5625 L 25.1875,14.625 L 23.1875,14.625 C 23.189309,14.551607 23.1875,14.480127 23.1875,14.40625 C 23.187499,10.009331 19.970039,6.4375002 16,6.4375002 z M 16,9.3125002 C 18.541593,9.3125001 20.59375,11.591371 20.59375,14.40625 C 20.59375,14.481237 20.565401,14.550811 20.5625,14.625 L 11.4375,14.625 C 11.434599,14.550811 11.40625,14.481237 11.40625,14.40625 C 11.40625,11.591371 13.458407,9.3125002 16,9.3125002 z"
       id="rect3764" />
    <path
       style="opacity:0.5;fill:#ffffff;fill-opacity:1;fill-rule:evenodd;stroke:#000000;stroke-width:0.2697393;stroke-miterlimit:4;stroke-dashoffset:0;stroke-opacity:0.18257303"
       d="M 15.868861,1.6673026 C 8.0112962,1.6673053 1.6316839,8.2282121 1.6316839,16.309089 C 14.282136,13.448544 17.363088,13.410808 30.097609,16.309089 C 30.097612,8.2282121 23.726429,1.6673026 15.868861,1.6673026 z"
       id="path3347"
       sodipodi:nodetypes="cccc" />
  </g>
</svg>
